# xmcd
#
# Track frame offsets:
#	150
#	21737
#	36062
#	54180
#	67450
#	81160
#	91827
#	112882
#	126432
#	139602
#	151700
#	163172
#	181622
#	195900
#
# Disc length: 2764 seconds
#
# Revision: 5
# Processed by: cddbd v1.5.2PL0 Copyright (c) Steve Scherf et al.
# Submitted via: EZCDAudioConverter 8.3.2.1
#
DISCID=b20aca0e
DTITLE=Μάνος Χατζιδάκις-Ελ. τύπος
DYEAR=1996
DGENRE=Έντεχνη λαϊκή
TTITLE0=Μοσχολιού Βίκυ - Είμ' αητός χωρίς φτερά [Ευτυχία Παπαγιαννοπούλου]
TTITLE1=Αλεξάνδρα - Εφτά τραγούδια θα σε πω [Μιχάλης Κακογιάννης]
TTITLE2=Αλεξάνδρα - Το πέλαγο είναι βαθύ [Νίκος Γκάτσος]
TTITLE3=Αγγελόπουλος Μανώλης - Γαρύφαλλο στ' αυτί [Αλέκος Σακελλάριος]
TTITLE4=Γερολυμάτος Γιώργος - Απόψε φθινοπώριασε [Νίκος Γκάτσος]
TTITLE5=Βιτάλη Ελένη - Χελιδόνι σε κλουβί [Νίκος Γκάτσος]
TTITLE6=Αλεξάνδρα - Μην τον ρωτάς τον ουρανό [Γιάννης Β. Ιωαννίδης]
TTITLE7=Τσακίρη Λόλα - Σαν σφυρίξεις τρεις φορές [Νίκος Γκάτσος]
TTITLE8=Ζωγράφος Γιώργος - Ο Ιρλανδός κι ο Ιουδαίος [Νίκος Γκάτσος]
TTITLE9=Αστεριάδη Πόπη - Το φεγγαράκι [Νίκος Γκάτσος]
TTITLE10=Formix - Αστέρι του βοριά (A hard night day)[Νίκος Γκάτσος]
TTITLE11=Μούτσιος Γιώργος-Δουράκη Ναρία - Ένας μύθος [Γεράσιμος Σταύρου]
TTITLE12=Κουρούκλη Ζωή - Αθήνα [Νίκος Γκάτσος]
TTITLE13=Δουράκη Μαρία - Στο Λαύριο [Νίκος Γκάτσος]
EXTD=
EXTT0=
EXTT1=
EXTT2=
EXTT3=
EXTT4=
EXTT5=
EXTT6=
EXTT7=
EXTT8=
EXTT9=
EXTT10=
EXTT11=
EXTT12=
EXTT13=
PLAYORDER=
